# Wavefront OBJ file automatically generated by Tiled2Unity

# Vertices (Count = 330)
v 0 -0.32 0
v -0.32 -0.32 0
v -0.32 0 0
v 0 0 0
v -0.64 -0.32 0
v -0.64 0 0
v -0.96 -0.32 0
v -0.96 0 0
v -1.28 -0.32 0
v -1.28 0 0
v -1.6 -0.32 0
v -1.6 0 0
v -1.92 -0.32 0
v -1.92 0 0
v -2.24 -0.32 0
v -2.24 0 0
v -2.56 -0.32 0
v -2.56 0 0
v -2.88 -0.32 0
v -2.88 0 0
v -3.2 -0.32 0
v -3.2 0 0
v -3.52 -0.32 0
v -3.52 0 0
v -3.84 -0.32 0
v -3.84 0 0
v -4.16 -0.32 0
v -4.16 0 0
v -4.48 -0.32 0
v -4.48 0 0
v -4.8 -0.32 0
v -4.8 0 0
v -5.12 -0.32 0
v -5.12 0 0
v -5.44 -0.32 0
v -5.44 0 0
v -5.76 -0.32 0
v -5.76 0 0
v -6.08 -0.32 0
v -6.08 0 0
v -6.4 -0.32 0
v -6.4 0 0
v -6.72 -0.32 0
v -6.72 0 0
v -7.04 -0.32 0
v -7.04 0 0
v -7.36 -0.32 0
v -7.36 0 0
v -7.68 -0.32 0
v -7.68 0 0
v -8 -0.32 0
v -8 0 0
v -8.32 -0.32 0
v -8.32 0 0
v -8.639999 -0.32 0
v -8.639999 0 0
v -8.96 -0.32 0
v -8.96 0 0
v -9.28 -0.32 0
v -9.28 0 0
v -9.599999 -0.32 0
v -9.599999 0 0
v -9.92 -0.32 0
v -9.92 0 0
v -10.24 -0.32 0
v -10.24 0 0
v -10.56 -0.32 0
v -10.56 0 0
v -10.88 -0.32 0
v -10.88 0 0
v -11.2 -0.32 0
v -11.2 0 0
v -11.52 -0.32 0
v -11.52 0 0
v -11.84 -0.32 0
v -11.84 0 0
v -12.16 -0.32 0
v -12.16 0 0
v -12.48 -0.32 0
v -12.48 0 0
v -12.8 -0.32 0
v -12.8 0 0
v -13.12 -0.32 0
v -13.12 0 0
v -13.44 -0.32 0
v -13.44 0 0
v 0 -0.64 0
v -0.32 -0.64 0
v -13.12 -0.64 0
v -13.44 -0.64 0
v 0 -0.96 0
v -0.32 -0.96 0
v -13.12 -0.96 0
v -13.44 -0.96 0
v 0 -1.28 0
v -0.32 -1.28 0
v -13.12 -1.28 0
v -13.44 -1.28 0
v 0 -1.6 0
v -0.32 -1.6 0
v -13.12 -1.6 0
v -13.44 -1.6 0
v 0 -1.92 0
v -0.32 -1.92 0
v -13.12 -1.92 0
v -13.44 -1.92 0
v 0 -2.24 0
v -0.32 -2.24 0
v -13.12 -2.24 0
v -13.44 -2.24 0
v 0 -2.56 0
v -0.32 -2.56 0
v -13.12 -2.56 0
v -13.44 -2.56 0
v 0 -2.88 0
v -0.32 -2.88 0
v -13.12 -2.88 0
v -13.44 -2.88 0
v 0 -3.2 0
v -0.32 -3.2 0
v -13.12 -3.2 0
v -13.44 -3.2 0
v 0 -3.52 0
v -0.32 -3.52 0
v -13.12 -3.52 0
v -13.44 -3.52 0
v 0 -3.84 0
v -0.32 -3.84 0
v -13.12 -3.84 0
v -13.44 -3.84 0
v 0 -4.16 0
v -0.32 -4.16 0
v -13.12 -4.16 0
v -13.44 -4.16 0
v 0 -4.48 0
v -0.32 -4.48 0
v -13.12 -4.48 0
v -13.44 -4.48 0
v 0 -4.8 0
v -0.32 -4.8 0
v -13.12 -4.8 0
v -13.44 -4.8 0
v 0 -5.12 0
v -0.32 -5.12 0
v -13.12 -5.12 0
v -13.44 -5.12 0
v 0 -5.44 0
v -0.32 -5.44 0
v -13.12 -5.44 0
v -13.44 -5.44 0
v 0 -5.76 0
v -0.32 -5.76 0
v -13.12 -5.76 0
v -13.44 -5.76 0
v -13.76 -5.76 0
v -13.76 -5.44 0
v -14.08 -5.76 0
v -14.08 -5.44 0
v -14.4 -5.76 0
v -14.4 -5.44 0
v -14.72 -5.76 0
v -14.72 -5.44 0
v -15.04 -5.76 0
v -15.04 -5.44 0
v -15.36 -5.76 0
v -15.36 -5.44 0
v -15.68 -5.76 0
v -15.68 -5.44 0
v -16 -5.76 0
v -16 -5.44 0
v -16.32 -5.76 0
v -16.32 -5.44 0
v -16.64 -5.76 0
v -16.64 -5.44 0
v -16.96 -5.76 0
v -16.96 -5.44 0
v -17.28 -5.76 0
v -17.28 -5.44 0
v -17.6 -5.76 0
v -17.6 -5.44 0
v -17.92 -5.76 0
v -17.92 -5.44 0
v -18.24 -5.76 0
v -18.24 -5.44 0
v -18.56 -5.76 0
v -18.56 -5.44 0
v -18.88 -5.76 0
v -18.88 -5.44 0
v -19.2 -5.76 0
v -19.2 -5.44 0
v -19.52 -5.76 0
v -19.52 -5.44 0
v 0 -6.08 0
v -0.32 -6.08 0
v -13.12 -6.08 0
v -13.44 -6.08 0
v 0 -6.4 0
v -0.32 -6.4 0
v -13.12 -6.4 0
v -13.44 -6.4 0
v 0 -6.72 0
v -0.32 -6.72 0
v -13.12 -6.72 0
v -13.44 -6.72 0
v 0 -7.04 0
v -0.32 -7.04 0
v -13.12 -7.04 0
v -13.44 -7.04 0
v 0 -7.36 0
v -0.32 -7.36 0
v -13.12 -7.36 0
v -13.44 -7.36 0
v 0 -7.68 0
v -0.32 -7.68 0
v -13.12 -7.68 0
v -13.44 -7.68 0
v 0 -8 0
v -0.32 -8 0
v -13.12 -8 0
v -13.44 -8 0
v 0 -8.32 0
v -0.32 -8.32 0
v -13.12 -8.32 0
v -13.44 -8.32 0
v 0 -8.639999 0
v -0.32 -8.639999 0
v -13.12 -8.639999 0
v -13.44 -8.639999 0
v 0 -8.96 0
v -0.32 -8.96 0
v -13.12 -8.96 0
v -13.44 -8.96 0
v 0 -9.28 0
v -0.32 -9.28 0
v -13.12 -9.28 0
v -13.44 -9.28 0
v 0 -9.599999 0
v -0.32 -9.599999 0
v -13.12 -9.599999 0
v -13.44 -9.599999 0
v 0 -9.92 0
v -0.32 -9.92 0
v -13.12 -9.92 0
v -13.44 -9.92 0
v 0 -10.24 0
v -0.32 -10.24 0
v -13.12 -10.24 0
v -13.44 -10.24 0
v 0 -10.56 0
v -0.32 -10.56 0
v -0.64 -10.56 0
v -0.64 -10.24 0
v -0.96 -10.56 0
v -0.96 -10.24 0
v -1.28 -10.56 0
v -1.28 -10.24 0
v -1.6 -10.56 0
v -1.6 -10.24 0
v -1.92 -10.56 0
v -1.92 -10.24 0
v -2.24 -10.56 0
v -2.24 -10.24 0
v -2.56 -10.56 0
v -2.56 -10.24 0
v -2.88 -10.56 0
v -2.88 -10.24 0
v -3.2 -10.56 0
v -3.2 -10.24 0
v -3.52 -10.56 0
v -3.52 -10.24 0
v -3.84 -10.56 0
v -3.84 -10.24 0
v -4.16 -10.56 0
v -4.16 -10.24 0
v -4.48 -10.56 0
v -4.48 -10.24 0
v -4.8 -10.56 0
v -4.8 -10.24 0
v -5.12 -10.56 0
v -5.12 -10.24 0
v -5.44 -10.56 0
v -5.44 -10.24 0
v -5.76 -10.56 0
v -5.76 -10.24 0
v -6.08 -10.56 0
v -6.08 -10.24 0
v -6.4 -10.56 0
v -6.4 -10.24 0
v -6.72 -10.56 0
v -6.72 -10.24 0
v -7.04 -10.56 0
v -7.04 -10.24 0
v -7.36 -10.56 0
v -7.36 -10.24 0
v -7.68 -10.56 0
v -7.68 -10.24 0
v -8 -10.56 0
v -8 -10.24 0
v -8.32 -10.56 0
v -8.32 -10.24 0
v -8.639999 -10.56 0
v -8.639999 -10.24 0
v -8.96 -10.56 0
v -8.96 -10.24 0
v -9.28 -10.56 0
v -9.28 -10.24 0
v -9.599999 -10.56 0
v -9.599999 -10.24 0
v -9.92 -10.56 0
v -9.92 -10.24 0
v -10.24 -10.56 0
v -10.24 -10.24 0
v -10.56 -10.56 0
v -10.56 -10.24 0
v -10.88 -10.56 0
v -10.88 -10.24 0
v -11.2 -10.56 0
v -11.2 -10.24 0
v -11.52 -10.56 0
v -11.52 -10.24 0
v -11.84 -10.56 0
v -11.84 -10.24 0
v -12.16 -10.56 0
v -12.16 -10.24 0
v -12.48 -10.56 0
v -12.48 -10.24 0
v -12.8 -10.56 0
v -12.8 -10.24 0
v -13.12 -10.56 0
v -13.44 -10.56 0

# Texture cooridinates (Count = 8)
vt 6.103516E-06 0.9500061
vt 0.04999389 0.9500061
vt 0.04999389 0.9999939
vt 6.103516E-06 0.9999939
vt 6.103516E-06 0.9000061
vt 0.04999389 0.9000061
vt 0.04999389 0.9499939
vt 6.103516E-06 0.9499939

# Normal
vn 0 0 -1

# Groups (Count = 2)

g mesh_0001
f 1/1/1 2/2/1 3/3/1 4/4/1
f 2/1/1 5/2/1 6/3/1 3/4/1
f 5/1/1 7/2/1 8/3/1 6/4/1
f 7/1/1 9/2/1 10/3/1 8/4/1
f 9/1/1 11/2/1 12/3/1 10/4/1
f 11/1/1 13/2/1 14/3/1 12/4/1
f 13/1/1 15/2/1 16/3/1 14/4/1
f 15/1/1 17/2/1 18/3/1 16/4/1
f 17/1/1 19/2/1 20/3/1 18/4/1
f 19/1/1 21/2/1 22/3/1 20/4/1
f 21/1/1 23/2/1 24/3/1 22/4/1
f 23/1/1 25/2/1 26/3/1 24/4/1
f 25/1/1 27/2/1 28/3/1 26/4/1
f 27/1/1 29/2/1 30/3/1 28/4/1
f 29/1/1 31/2/1 32/3/1 30/4/1
f 31/1/1 33/2/1 34/3/1 32/4/1
f 33/1/1 35/2/1 36/3/1 34/4/1
f 35/1/1 37/2/1 38/3/1 36/4/1
f 37/1/1 39/2/1 40/3/1 38/4/1
f 39/1/1 41/2/1 42/3/1 40/4/1
f 41/1/1 43/2/1 44/3/1 42/4/1
f 43/1/1 45/2/1 46/3/1 44/4/1
f 45/1/1 47/2/1 48/3/1 46/4/1
f 47/1/1 49/2/1 50/3/1 48/4/1
f 49/1/1 51/2/1 52/3/1 50/4/1
f 51/1/1 53/2/1 54/3/1 52/4/1
f 53/1/1 55/2/1 56/3/1 54/4/1
f 55/1/1 57/2/1 58/3/1 56/4/1
f 57/1/1 59/2/1 60/3/1 58/4/1
f 59/1/1 61/2/1 62/3/1 60/4/1
f 61/1/1 63/2/1 64/3/1 62/4/1
f 63/1/1 65/2/1 66/3/1 64/4/1
f 65/1/1 67/2/1 68/3/1 66/4/1
f 67/1/1 69/2/1 70/3/1 68/4/1
f 69/1/1 71/2/1 72/3/1 70/4/1
f 71/1/1 73/2/1 74/3/1 72/4/1
f 73/1/1 75/2/1 76/3/1 74/4/1
f 75/1/1 77/2/1 78/3/1 76/4/1
f 77/1/1 79/2/1 80/3/1 78/4/1
f 79/1/1 81/2/1 82/3/1 80/4/1
f 81/1/1 83/2/1 84/3/1 82/4/1
f 83/1/1 85/2/1 86/3/1 84/4/1
f 87/1/1 88/2/1 2/3/1 1/4/1
f 89/1/1 90/2/1 85/3/1 83/4/1
f 91/1/1 92/2/1 88/3/1 87/4/1
f 93/1/1 94/2/1 90/3/1 89/4/1
f 95/1/1 96/2/1 92/3/1 91/4/1
f 97/1/1 98/2/1 94/3/1 93/4/1
f 99/1/1 100/2/1 96/3/1 95/4/1
f 101/1/1 102/2/1 98/3/1 97/4/1
f 103/1/1 104/2/1 100/3/1 99/4/1
f 105/1/1 106/2/1 102/3/1 101/4/1
f 107/1/1 108/2/1 104/3/1 103/4/1
f 109/1/1 110/2/1 106/3/1 105/4/1
f 111/1/1 112/2/1 108/3/1 107/4/1
f 113/1/1 114/2/1 110/3/1 109/4/1
f 115/1/1 116/2/1 112/3/1 111/4/1
f 117/1/1 118/2/1 114/3/1 113/4/1
f 119/1/1 120/2/1 116/3/1 115/4/1
f 121/1/1 122/2/1 118/3/1 117/4/1
f 123/1/1 124/2/1 120/3/1 119/4/1
f 125/1/1 126/2/1 122/3/1 121/4/1
f 127/1/1 128/2/1 124/3/1 123/4/1
f 129/1/1 130/2/1 126/3/1 125/4/1
f 131/1/1 132/2/1 128/3/1 127/4/1
f 133/1/1 134/2/1 130/3/1 129/4/1
f 135/1/1 136/2/1 132/3/1 131/4/1
f 137/1/1 138/2/1 134/3/1 133/4/1
f 139/1/1 140/2/1 136/3/1 135/4/1
f 141/1/1 142/2/1 138/3/1 137/4/1
f 143/1/1 144/2/1 140/3/1 139/4/1
f 145/1/1 146/2/1 142/3/1 141/4/1
f 147/1/1 148/2/1 144/3/1 143/4/1
f 149/1/1 150/2/1 146/3/1 145/4/1
f 151/1/1 152/2/1 148/3/1 147/4/1
f 153/1/1 154/2/1 150/3/1 149/4/1
f 154/1/1 155/2/1 156/3/1 150/4/1
f 155/1/1 157/2/1 158/3/1 156/4/1
f 157/1/1 159/2/1 160/3/1 158/4/1
f 159/1/1 161/2/1 162/3/1 160/4/1
f 161/1/1 163/2/1 164/3/1 162/4/1
f 163/1/1 165/2/1 166/3/1 164/4/1
f 165/1/1 167/2/1 168/3/1 166/4/1
f 167/1/1 169/2/1 170/3/1 168/4/1
f 169/1/1 171/2/1 172/3/1 170/4/1
f 171/1/1 173/2/1 174/3/1 172/4/1
f 173/1/1 175/2/1 176/3/1 174/4/1
f 175/1/1 177/2/1 178/3/1 176/4/1
f 177/1/1 179/2/1 180/3/1 178/4/1
f 179/1/1 181/2/1 182/3/1 180/4/1
f 181/1/1 183/2/1 184/3/1 182/4/1
f 183/1/1 185/2/1 186/3/1 184/4/1
f 185/1/1 187/2/1 188/3/1 186/4/1
f 187/1/1 189/2/1 190/3/1 188/4/1
f 189/1/1 191/2/1 192/3/1 190/4/1
f 193/1/1 194/2/1 152/3/1 151/4/1
f 195/1/1 196/2/1 154/3/1 153/4/1
f 197/1/1 198/2/1 194/3/1 193/4/1
f 199/1/1 200/2/1 196/3/1 195/4/1
f 201/1/1 202/2/1 198/3/1 197/4/1
f 203/1/1 204/2/1 200/3/1 199/4/1
f 205/1/1 206/2/1 202/3/1 201/4/1
f 207/1/1 208/2/1 204/3/1 203/4/1
f 209/1/1 210/2/1 206/3/1 205/4/1
f 211/1/1 212/2/1 208/3/1 207/4/1
f 213/1/1 214/2/1 210/3/1 209/4/1
f 215/1/1 216/2/1 212/3/1 211/4/1
f 217/1/1 218/2/1 214/3/1 213/4/1
f 219/1/1 220/2/1 216/3/1 215/4/1
f 221/1/1 222/2/1 218/3/1 217/4/1
f 223/1/1 224/2/1 220/3/1 219/4/1
f 225/1/1 226/2/1 222/3/1 221/4/1
f 227/1/1 228/2/1 224/3/1 223/4/1
f 229/1/1 230/2/1 226/3/1 225/4/1
f 231/1/1 232/2/1 228/3/1 227/4/1
f 233/1/1 234/2/1 230/3/1 229/4/1
f 235/1/1 236/2/1 232/3/1 231/4/1
f 237/1/1 238/2/1 234/3/1 233/4/1
f 239/1/1 240/2/1 236/3/1 235/4/1
f 241/1/1 242/2/1 238/3/1 237/4/1
f 243/1/1 244/2/1 240/3/1 239/4/1
f 245/1/1 246/2/1 242/3/1 241/4/1
f 247/1/1 248/2/1 244/3/1 243/4/1
f 249/1/1 250/2/1 246/3/1 245/4/1
f 250/1/1 251/2/1 252/3/1 246/4/1
f 251/1/1 253/2/1 254/3/1 252/4/1
f 253/1/1 255/2/1 256/3/1 254/4/1
f 255/1/1 257/2/1 258/3/1 256/4/1
f 257/1/1 259/2/1 260/3/1 258/4/1
f 259/1/1 261/2/1 262/3/1 260/4/1
f 261/1/1 263/2/1 264/3/1 262/4/1
f 263/1/1 265/2/1 266/3/1 264/4/1
f 265/1/1 267/2/1 268/3/1 266/4/1
f 267/1/1 269/2/1 270/3/1 268/4/1
f 269/1/1 271/2/1 272/3/1 270/4/1
f 271/1/1 273/2/1 274/3/1 272/4/1
f 273/1/1 275/2/1 276/3/1 274/4/1
f 275/1/1 277/2/1 278/3/1 276/4/1
f 277/1/1 279/2/1 280/3/1 278/4/1
f 279/1/1 281/2/1 282/3/1 280/4/1
f 281/1/1 283/2/1 284/3/1 282/4/1
f 283/1/1 285/2/1 286/3/1 284/4/1
f 285/1/1 287/2/1 288/3/1 286/4/1
f 287/1/1 289/2/1 290/3/1 288/4/1
f 289/1/1 291/2/1 292/3/1 290/4/1
f 291/1/1 293/2/1 294/3/1 292/4/1
f 293/1/1 295/2/1 296/3/1 294/4/1
f 295/1/1 297/2/1 298/3/1 296/4/1
f 297/1/1 299/2/1 300/3/1 298/4/1
f 299/1/1 301/2/1 302/3/1 300/4/1
f 301/1/1 303/2/1 304/3/1 302/4/1
f 303/1/1 305/2/1 306/3/1 304/4/1
f 305/1/1 307/2/1 308/3/1 306/4/1
f 307/1/1 309/2/1 310/3/1 308/4/1
f 309/1/1 311/2/1 312/3/1 310/4/1
f 311/1/1 313/2/1 314/3/1 312/4/1
f 313/1/1 315/2/1 316/3/1 314/4/1
f 315/1/1 317/2/1 318/3/1 316/4/1
f 317/1/1 319/2/1 320/3/1 318/4/1
f 319/1/1 321/2/1 322/3/1 320/4/1
f 321/1/1 323/2/1 324/3/1 322/4/1
f 323/1/1 325/2/1 326/3/1 324/4/1
f 325/1/1 327/2/1 328/3/1 326/4/1
f 327/1/1 329/2/1 247/3/1 328/4/1
f 329/1/1 330/2/1 248/3/1 247/4/1

g mesh_tile_0021
f 1/5/1 2/6/1 3/7/1 4/8/1

