# Wavefront OBJ file automatically generated by Tiled2Unity

# Vertices (Count = 240)
v -8.96 -3.52 0
v -9.28 -3.52 0
v -9.28 -3.2 0
v -8.96 -3.2 0
v 0 -0.32 0
v -0.32 -0.32 0
v -0.32 0 0
v 0 0 0
v -0.64 -0.32 0
v -0.64 0 0
v -0.96 -0.32 0
v -0.96 0 0
v -1.28 -0.32 0
v -1.28 0 0
v -1.6 -0.32 0
v -1.6 0 0
v -1.92 -0.32 0
v -1.92 0 0
v -2.24 -0.32 0
v -2.24 0 0
v -2.56 -0.32 0
v -2.56 0 0
v -2.88 -0.32 0
v -2.88 0 0
v -3.2 -0.32 0
v -3.2 0 0
v -3.52 -0.32 0
v -3.52 0 0
v -3.84 -0.32 0
v -3.84 0 0
v -4.16 -0.32 0
v -4.16 0 0
v -4.48 -0.32 0
v -4.48 0 0
v -4.8 -0.32 0
v -4.8 0 0
v -5.12 -0.32 0
v -5.12 0 0
v -5.44 -0.32 0
v -5.44 0 0
v -5.76 -0.32 0
v -5.76 0 0
v -6.08 -0.32 0
v -6.08 0 0
v -6.4 -0.32 0
v -6.4 0 0
v -6.72 -0.32 0
v -6.72 0 0
v -7.04 -0.32 0
v -7.04 0 0
v -7.36 -0.32 0
v -7.36 0 0
v -7.68 -0.32 0
v -7.68 0 0
v -8 -0.32 0
v -8 0 0
v -8.32 -0.32 0
v -8.32 0 0
v -8.639999 -0.32 0
v -8.639999 0 0
v -8.96 -0.32 0
v -8.96 0 0
v -9.28 -0.32 0
v -9.28 0 0
v -9.599999 -0.32 0
v -9.599999 0 0
v -9.92 -0.32 0
v -9.92 0 0
v -10.24 -0.32 0
v -10.24 0 0
v -10.56 -0.32 0
v -10.56 0 0
v -10.88 -0.32 0
v -10.88 0 0
v -11.2 -0.32 0
v -11.2 0 0
v -11.52 -0.32 0
v -11.52 0 0
v 0 -0.64 0
v -0.32 -0.64 0
v -11.2 -0.64 0
v -11.52 -0.64 0
v 0 -0.96 0
v -0.32 -0.96 0
v -11.2 -0.96 0
v -11.52 -0.96 0
v 0 -1.28 0
v -0.32 -1.28 0
v -11.2 -1.28 0
v -11.52 -1.28 0
v 0 -1.6 0
v -0.32 -1.6 0
v -11.2 -1.6 0
v -11.52 -1.6 0
v 0 -1.92 0
v -0.32 -1.92 0
v -11.2 -1.92 0
v -11.52 -1.92 0
v 0 -2.24 0
v -0.32 -2.24 0
v -11.2 -2.24 0
v -11.52 -2.24 0
v 0 -2.56 0
v -0.32 -2.56 0
v -11.2 -2.56 0
v -11.52 -2.56 0
v 0 -2.88 0
v -0.32 -2.88 0
v -11.2 -2.88 0
v -11.52 -2.88 0
v 0 -3.2 0
v -0.32 -3.2 0
v -11.2 -3.2 0
v -11.52 -3.2 0
v 0 -3.52 0
v -0.32 -3.52 0
v -11.2 -3.52 0
v -11.52 -3.52 0
v 0 -3.84 0
v -0.32 -3.84 0
v -11.2 -3.84 0
v -11.52 -3.84 0
v 0 -4.16 0
v -0.32 -4.16 0
v -11.2 -4.16 0
v -11.52 -4.16 0
v 0 -4.48 0
v -0.32 -4.48 0
v -11.2 -4.48 0
v -11.52 -4.48 0
v 0 -4.8 0
v -0.32 -4.8 0
v -11.2 -4.8 0
v -11.52 -4.8 0
v 0 -5.12 0
v -0.32 -5.12 0
v -11.2 -5.12 0
v -11.52 -5.12 0
v 0 -5.44 0
v -0.32 -5.44 0
v -11.2 -5.44 0
v -11.52 -5.44 0
v 0 -5.76 0
v -0.32 -5.76 0
v -11.2 -5.76 0
v -11.52 -5.76 0
v 0 -6.08 0
v -0.32 -6.08 0
v -11.2 -6.08 0
v -11.52 -6.08 0
v 0 -6.4 0
v -0.32 -6.4 0
v -11.2 -6.4 0
v -11.52 -6.4 0
v 0 -6.72 0
v -0.32 -6.72 0
v -11.2 -6.72 0
v -11.52 -6.72 0
v 0 -7.04 0
v -0.32 -7.04 0
v -11.2 -7.04 0
v -11.52 -7.04 0
v 0 -7.36 0
v -0.32 -7.36 0
v -11.2 -7.36 0
v -11.52 -7.36 0
v 0 -7.68 0
v -0.32 -7.68 0
v -11.2 -7.68 0
v -11.52 -7.68 0
v 0 -8 0
v -0.32 -8 0
v -0.64 -8 0
v -0.64 -7.68 0
v -0.96 -8 0
v -0.96 -7.68 0
v -1.28 -8 0
v -1.28 -7.68 0
v -1.6 -8 0
v -1.6 -7.68 0
v -1.92 -8 0
v -1.92 -7.68 0
v -2.24 -8 0
v -2.24 -7.68 0
v -2.56 -8 0
v -2.56 -7.68 0
v -2.88 -8 0
v -2.88 -7.68 0
v -3.2 -8 0
v -3.2 -7.68 0
v -3.52 -8 0
v -3.52 -7.68 0
v -3.84 -8 0
v -3.84 -7.68 0
v -4.16 -8 0
v -4.16 -7.68 0
v -4.48 -8 0
v -4.48 -7.68 0
v -4.8 -8 0
v -4.8 -7.68 0
v -5.12 -8 0
v -5.12 -7.68 0
v -5.44 -8 0
v -5.44 -7.68 0
v -5.76 -8 0
v -5.76 -7.68 0
v -6.08 -8 0
v -6.08 -7.68 0
v -6.4 -8 0
v -6.4 -7.68 0
v -6.72 -8 0
v -6.72 -7.68 0
v -7.04 -8 0
v -7.04 -7.68 0
v -7.36 -8 0
v -7.36 -7.68 0
v -7.68 -8 0
v -7.68 -7.68 0
v -8 -8 0
v -8 -7.68 0
v -8.32 -8 0
v -8.32 -7.68 0
v -8.639999 -8 0
v -8.639999 -7.68 0
v -8.96 -8 0
v -8.96 -7.68 0
v -9.28 -8 0
v -9.28 -7.68 0
v -9.599999 -8 0
v -9.599999 -7.68 0
v -9.92 -8 0
v -9.92 -7.68 0
v -10.24 -8 0
v -10.24 -7.68 0
v -10.56 -8 0
v -10.56 -7.68 0
v -10.88 -8 0
v -10.88 -7.68 0
v -11.2 -8 0
v -11.52 -8 0

# Texture cooridinates (Count = 12)
vt 0.1000061 0.9500061
vt 0.1499939 0.9500061
vt 0.1499939 0.9999939
vt 0.1000061 0.9999939
vt 6.103516E-06 0.9500061
vt 0.04999389 0.9500061
vt 0.04999389 0.9999939
vt 6.103516E-06 0.9999939
vt 6.103516E-06 0.9000061
vt 0.04999389 0.9000061
vt 0.04999389 0.9499939
vt 6.103516E-06 0.9499939

# Normal
vn 0 0 -1

# Groups (Count = 3)

g mesh_0001
f 1/1/1 2/2/1 3/3/1 4/4/1

g mesh_0002
f 5/5/1 6/6/1 7/7/1 8/8/1
f 6/5/1 9/6/1 10/7/1 7/8/1
f 9/5/1 11/6/1 12/7/1 10/8/1
f 11/5/1 13/6/1 14/7/1 12/8/1
f 13/5/1 15/6/1 16/7/1 14/8/1
f 15/5/1 17/6/1 18/7/1 16/8/1
f 17/5/1 19/6/1 20/7/1 18/8/1
f 19/5/1 21/6/1 22/7/1 20/8/1
f 21/5/1 23/6/1 24/7/1 22/8/1
f 23/5/1 25/6/1 26/7/1 24/8/1
f 25/5/1 27/6/1 28/7/1 26/8/1
f 27/5/1 29/6/1 30/7/1 28/8/1
f 29/5/1 31/6/1 32/7/1 30/8/1
f 31/5/1 33/6/1 34/7/1 32/8/1
f 33/5/1 35/6/1 36/7/1 34/8/1
f 35/5/1 37/6/1 38/7/1 36/8/1
f 37/5/1 39/6/1 40/7/1 38/8/1
f 39/5/1 41/6/1 42/7/1 40/8/1
f 41/5/1 43/6/1 44/7/1 42/8/1
f 43/5/1 45/6/1 46/7/1 44/8/1
f 45/5/1 47/6/1 48/7/1 46/8/1
f 47/5/1 49/6/1 50/7/1 48/8/1
f 49/5/1 51/6/1 52/7/1 50/8/1
f 51/5/1 53/6/1 54/7/1 52/8/1
f 53/5/1 55/6/1 56/7/1 54/8/1
f 55/5/1 57/6/1 58/7/1 56/8/1
f 57/5/1 59/6/1 60/7/1 58/8/1
f 59/5/1 61/6/1 62/7/1 60/8/1
f 61/5/1 63/6/1 64/7/1 62/8/1
f 63/5/1 65/6/1 66/7/1 64/8/1
f 65/5/1 67/6/1 68/7/1 66/8/1
f 67/5/1 69/6/1 70/7/1 68/8/1
f 69/5/1 71/6/1 72/7/1 70/8/1
f 71/5/1 73/6/1 74/7/1 72/8/1
f 73/5/1 75/6/1 76/7/1 74/8/1
f 75/5/1 77/6/1 78/7/1 76/8/1
f 79/5/1 80/6/1 6/7/1 5/8/1
f 81/5/1 82/6/1 77/7/1 75/8/1
f 83/5/1 84/6/1 80/7/1 79/8/1
f 85/5/1 86/6/1 82/7/1 81/8/1
f 87/5/1 88/6/1 84/7/1 83/8/1
f 89/5/1 90/6/1 86/7/1 85/8/1
f 91/5/1 92/6/1 88/7/1 87/8/1
f 93/5/1 94/6/1 90/7/1 89/8/1
f 95/5/1 96/6/1 92/7/1 91/8/1
f 97/5/1 98/6/1 94/7/1 93/8/1
f 99/5/1 100/6/1 96/7/1 95/8/1
f 101/5/1 102/6/1 98/7/1 97/8/1
f 103/5/1 104/6/1 100/7/1 99/8/1
f 105/5/1 106/6/1 102/7/1 101/8/1
f 107/5/1 108/6/1 104/7/1 103/8/1
f 109/5/1 110/6/1 106/7/1 105/8/1
f 111/5/1 112/6/1 108/7/1 107/8/1
f 113/5/1 114/6/1 110/7/1 109/8/1
f 115/5/1 116/6/1 112/7/1 111/8/1
f 117/5/1 118/6/1 114/7/1 113/8/1
f 119/5/1 120/6/1 116/7/1 115/8/1
f 121/5/1 122/6/1 118/7/1 117/8/1
f 123/5/1 124/6/1 120/7/1 119/8/1
f 125/5/1 126/6/1 122/7/1 121/8/1
f 127/5/1 128/6/1 124/7/1 123/8/1
f 129/5/1 130/6/1 126/7/1 125/8/1
f 131/5/1 132/6/1 128/7/1 127/8/1
f 133/5/1 134/6/1 130/7/1 129/8/1
f 135/5/1 136/6/1 132/7/1 131/8/1
f 137/5/1 138/6/1 134/7/1 133/8/1
f 139/5/1 140/6/1 136/7/1 135/8/1
f 141/5/1 142/6/1 138/7/1 137/8/1
f 143/5/1 144/6/1 140/7/1 139/8/1
f 145/5/1 146/6/1 142/7/1 141/8/1
f 147/5/1 148/6/1 144/7/1 143/8/1
f 149/5/1 150/6/1 146/7/1 145/8/1
f 151/5/1 152/6/1 148/7/1 147/8/1
f 153/5/1 154/6/1 150/7/1 149/8/1
f 155/5/1 156/6/1 152/7/1 151/8/1
f 157/5/1 158/6/1 154/7/1 153/8/1
f 159/5/1 160/6/1 156/7/1 155/8/1
f 161/5/1 162/6/1 158/7/1 157/8/1
f 163/5/1 164/6/1 160/7/1 159/8/1
f 165/5/1 166/6/1 162/7/1 161/8/1
f 167/5/1 168/6/1 164/7/1 163/8/1
f 169/5/1 170/6/1 166/7/1 165/8/1
f 171/5/1 172/6/1 168/7/1 167/8/1
f 172/5/1 173/6/1 174/7/1 168/8/1
f 173/5/1 175/6/1 176/7/1 174/8/1
f 175/5/1 177/6/1 178/7/1 176/8/1
f 177/5/1 179/6/1 180/7/1 178/8/1
f 179/5/1 181/6/1 182/7/1 180/8/1
f 181/5/1 183/6/1 184/7/1 182/8/1
f 183/5/1 185/6/1 186/7/1 184/8/1
f 185/5/1 187/6/1 188/7/1 186/8/1
f 187/5/1 189/6/1 190/7/1 188/8/1
f 189/5/1 191/6/1 192/7/1 190/8/1
f 191/5/1 193/6/1 194/7/1 192/8/1
f 193/5/1 195/6/1 196/7/1 194/8/1
f 195/5/1 197/6/1 198/7/1 196/8/1
f 197/5/1 199/6/1 200/7/1 198/8/1
f 199/5/1 201/6/1 202/7/1 200/8/1
f 201/5/1 203/6/1 204/7/1 202/8/1
f 203/5/1 205/6/1 206/7/1 204/8/1
f 205/5/1 207/6/1 208/7/1 206/8/1
f 207/5/1 209/6/1 210/7/1 208/8/1
f 209/5/1 211/6/1 212/7/1 210/8/1
f 211/5/1 213/6/1 214/7/1 212/8/1
f 213/5/1 215/6/1 216/7/1 214/8/1
f 215/5/1 217/6/1 218/7/1 216/8/1
f 217/5/1 219/6/1 220/7/1 218/8/1
f 219/5/1 221/6/1 222/7/1 220/8/1
f 221/5/1 223/6/1 224/7/1 222/8/1
f 223/5/1 225/6/1 226/7/1 224/8/1
f 225/5/1 227/6/1 228/7/1 226/8/1
f 227/5/1 229/6/1 230/7/1 228/8/1
f 229/5/1 231/6/1 232/7/1 230/8/1
f 231/5/1 233/6/1 234/7/1 232/8/1
f 233/5/1 235/6/1 236/7/1 234/8/1
f 235/5/1 237/6/1 238/7/1 236/8/1
f 237/5/1 239/6/1 169/7/1 238/8/1
f 239/5/1 240/6/1 170/7/1 169/8/1

g mesh_tile_0021
f 5/9/1 6/10/1 7/11/1 8/12/1

