# Wavefront OBJ file automatically generated by Tiled2Unity

# Vertices (Count = 239)
v -0.32 -0.96 0
v -0.64 -0.96 0
v -0.64 -0.64 0
v -0.32 -0.64 0
v -0.96 -0.96 0
v -0.96 -0.64 0
v -1.28 -0.96 0
v -1.28 -0.64 0
v -1.6 -0.96 0
v -1.92 -0.96 0
v -1.92 -0.64 0
v -1.6 -0.64 0
v -2.24 -0.96 0
v -2.24 -0.64 0
v -0.32 -1.28 0
v -0.64 -1.28 0
v -0.96 -1.28 0
v -1.28 -1.28 0
v -1.6 -1.28 0
v -1.92 -1.28 0
v -2.24 -1.28 0
v -0.32 -1.6 0
v -0.64 -1.6 0
v -0.96 -1.6 0
v -1.28 -1.6 0
v -1.6 -1.6 0
v -1.92 -1.6 0
v -2.24 -1.6 0
v -0.32 -1.92 0
v -0.64 -1.92 0
v -0.96 -1.92 0
v -1.28 -1.92 0
v -1.6 -1.92 0
v -1.92 -1.92 0
v -2.24 -1.92 0
v -4.16 -1.6 0
v -4.48 -1.6 0
v -4.48 -1.28 0
v -4.16 -1.28 0
v -4.8 -1.6 0
v -4.8 -1.28 0
v -5.12 -1.6 0
v -5.12 -1.28 0
v -5.44 -1.6 0
v -5.44 -1.28 0
v -5.76 -1.6 0
v -5.76 -1.28 0
v -6.08 -1.6 0
v -6.08 -1.28 0
v -6.08 -1.92 0
v -6.4 -1.92 0
v -6.4 -1.6 0
v -1.6 -2.24 0
v -1.92 -2.24 0
v -6.08 -2.24 0
v -6.4 -2.24 0
v -1.6 -2.56 0
v -1.92 -2.56 0
v -3.2 -2.56 0
v -3.52 -2.56 0
v -3.52 -2.24 0
v -3.2 -2.24 0
v -6.08 -2.56 0
v -6.4 -2.56 0
v -7.36 -2.56 0
v -7.68 -2.56 0
v -7.68 -2.24 0
v -7.36 -2.24 0
v -1.92 -2.88 0
v -2.24 -2.88 0
v -2.24 -2.56 0
v -2.56 -2.88 0
v -2.56 -2.56 0
v -2.88 -2.88 0
v -2.88 -2.56 0
v -3.2 -2.88 0
v -3.52 -2.88 0
v -6.08 -2.88 0
v -6.4 -2.88 0
v -7.36 -2.88 0
v -7.68 -2.88 0
v -6.08 -3.2 0
v -6.4 -3.2 0
v -7.36 -3.2 0
v -7.68 -3.2 0
v -5.76 -3.52 0
v -6.08 -3.52 0
v -5.76 -3.2 0
v -7.36 -3.52 0
v -7.68 -3.52 0
v -5.76 -3.84 0
v -6.08 -3.84 0
v -7.36 -3.84 0
v -7.68 -3.84 0
v -5.44 -4.16 0
v -5.76 -4.16 0
v -5.44 -3.84 0
v -6.08 -4.16 0
v -7.36 -4.16 0
v -7.68 -4.16 0
v -1.92 -4.48 0
v -2.24 -4.48 0
v -2.24 -4.16 0
v -1.92 -4.16 0
v -7.36 -4.48 0
v -7.68 -4.48 0
v -1.92 -4.8 0
v -2.24 -4.8 0
v -7.36 -4.8 0
v -7.68 -4.8 0
v -1.92 -5.12 0
v -2.24 -5.12 0
v -2.24 -5.44 0
v -2.56 -5.44 0
v -2.56 -5.12 0
v -2.56 -5.76 0
v -2.88 -5.76 0
v -2.88 -5.44 0
v -3.2 -5.76 0
v -3.2 -5.44 0
v -4.8 -5.76 0
v -5.12 -5.76 0
v -5.12 -5.44 0
v -4.8 -5.44 0
v -5.44 -5.76 0
v -5.44 -5.44 0
v -13.44 -5.76 0
v -13.76 -5.76 0
v -13.76 -5.44 0
v -13.44 -5.44 0
v -14.08 -5.76 0
v -14.08 -5.44 0
v -14.4 -5.76 0
v -14.4 -5.44 0
v -14.72 -5.76 0
v -14.72 -5.44 0
v -15.04 -5.76 0
v -15.04 -5.44 0
v -15.36 -5.76 0
v -15.36 -5.44 0
v -15.68 -5.76 0
v -15.68 -5.44 0
v -16 -5.76 0
v -16 -5.44 0
v -16.32 -5.76 0
v -16.32 -5.44 0
v -16.64 -5.76 0
v -16.64 -5.44 0
v -16.96 -5.76 0
v -16.96 -5.44 0
v -17.28 -5.76 0
v -17.28 -5.44 0
v -17.6 -5.76 0
v -17.6 -5.44 0
v -17.92 -5.76 0
v -17.92 -5.44 0
v -18.24 -5.76 0
v -18.24 -5.44 0
v -18.56 -5.76 0
v -18.56 -5.44 0
v -18.88 -5.76 0
v -18.88 -5.44 0
v -19.2 -5.76 0
v -19.2 -5.44 0
v -19.52 -5.76 0
v -19.52 -5.44 0
v -3.2 -6.08 0
v -3.52 -6.08 0
v -3.52 -5.76 0
v -4.8 -6.08 0
v -5.12 -6.08 0
v -6.4 -6.08 0
v -6.72 -6.08 0
v -6.72 -5.76 0
v -6.4 -5.76 0
v -7.04 -6.08 0
v -7.04 -5.76 0
v -7.36 -6.08 0
v -7.36 -5.76 0
v -7.68 -6.08 0
v -7.68 -5.76 0
v -10.88 -6.08 0
v -11.2 -6.08 0
v -11.2 -5.76 0
v -10.88 -5.76 0
v -11.52 -6.08 0
v -11.52 -5.76 0
v -11.84 -6.08 0
v -11.84 -5.76 0
v -12.16 -6.08 0
v -12.16 -5.76 0
v -12.48 -6.08 0
v -12.48 -5.76 0
v -12.8 -6.08 0
v -12.8 -5.76 0
v -13.12 -6.08 0
v -13.12 -5.76 0
v -13.44 -6.08 0
v -3.52 -6.4 0
v -3.84 -6.4 0
v -3.84 -6.08 0
v -4.16 -6.4 0
v -4.16 -6.08 0
v -4.48 -6.4 0
v -4.48 -6.08 0
v -4.8 -6.4 0
v -6.08 -6.4 0
v -6.4 -6.4 0
v -6.08 -6.08 0
v -6.72 -6.4 0
v -7.68 -6.4 0
v -8 -6.4 0
v -8 -6.08 0
v -8.32 -6.4 0
v -8.32 -6.08 0
v -8.639999 -6.4 0
v -8.639999 -6.08 0
v -8.96 -6.4 0
v -8.96 -6.08 0
v -9.28 -6.4 0
v -9.28 -6.08 0
v -9.599999 -6.4 0
v -9.599999 -6.08 0
v -9.92 -6.4 0
v -9.92 -6.08 0
v -10.24 -6.4 0
v -10.24 -6.08 0
v -10.56 -6.4 0
v -10.56 -6.08 0
v -10.88 -6.4 0
v -6.08 -6.72 0
v -6.4 -6.72 0
v -5.76 -7.04 0
v -6.08 -7.04 0
v -5.76 -6.72 0
v 0 -0.32 0
v -0.32 -0.32 0
v -0.32 0 0
v 0 0 0

# Texture cooridinates (Count = 12)
vt 0.0500061 0.9500061
vt 0.0999939 0.9500061
vt 0.0999939 0.9999939
vt 0.0500061 0.9999939
vt 6.103516E-06 0.9500061
vt 0.04999389 0.9500061
vt 0.04999389 0.9999939
vt 6.103516E-06 0.9999939
vt 0.1000061 0.9500061
vt 0.1499939 0.9500061
vt 0.1499939 0.9999939
vt 0.1000061 0.9999939

# Normal
vn 0 0 -1

# Groups (Count = 3)

g mesh_0001
f 1/1/1 2/2/1 3/3/1 4/4/1
f 2/1/1 5/2/1 6/3/1 3/4/1
f 5/1/1 7/2/1 8/3/1 6/4/1
f 9/1/1 10/2/1 11/3/1 12/4/1
f 10/1/1 13/2/1 14/3/1 11/4/1
f 15/1/1 16/2/1 2/3/1 1/4/1
f 16/1/1 17/2/1 5/3/1 2/4/1
f 17/1/1 18/2/1 7/3/1 5/4/1
f 18/1/1 19/2/1 9/3/1 7/4/1
f 19/1/1 20/2/1 10/3/1 9/4/1
f 20/1/1 21/2/1 13/3/1 10/4/1
f 22/1/1 23/2/1 16/3/1 15/4/1
f 23/1/1 24/2/1 17/3/1 16/4/1
f 24/1/1 25/2/1 18/3/1 17/4/1
f 25/1/1 26/2/1 19/3/1 18/4/1
f 26/1/1 27/2/1 20/3/1 19/4/1
f 27/1/1 28/2/1 21/3/1 20/4/1
f 29/1/1 30/2/1 23/3/1 22/4/1
f 30/1/1 31/2/1 24/3/1 23/4/1
f 31/1/1 32/2/1 25/3/1 24/4/1
f 32/1/1 33/2/1 26/3/1 25/4/1
f 33/1/1 34/2/1 27/3/1 26/4/1
f 34/1/1 35/2/1 28/3/1 27/4/1

g mesh_0002
f 7/5/1 9/6/1 12/7/1 8/8/1
f 17/5/1 18/6/1 7/7/1 5/8/1
f 24/5/1 25/6/1 18/7/1 17/8/1
f 36/5/1 37/6/1 38/7/1 39/8/1
f 37/5/1 40/6/1 41/7/1 38/8/1
f 40/5/1 42/6/1 43/7/1 41/8/1
f 42/5/1 44/6/1 45/7/1 43/8/1
f 44/5/1 46/6/1 47/7/1 45/8/1
f 46/5/1 48/6/1 49/7/1 47/8/1
f 31/5/1 32/6/1 25/7/1 24/8/1
f 32/5/1 33/6/1 26/7/1 25/8/1
f 50/5/1 51/6/1 52/7/1 48/8/1
f 53/5/1 54/6/1 34/7/1 33/8/1
f 55/5/1 56/6/1 51/7/1 50/8/1
f 57/5/1 58/6/1 54/7/1 53/8/1
f 59/5/1 60/6/1 61/7/1 62/8/1
f 63/5/1 64/6/1 56/7/1 55/8/1
f 65/1/1 66/2/1 67/3/1 68/4/1
f 69/5/1 70/6/1 71/7/1 58/8/1
f 70/5/1 72/6/1 73/7/1 71/8/1
f 72/5/1 74/6/1 75/7/1 73/8/1
f 74/5/1 76/6/1 59/7/1 75/8/1
f 76/5/1 77/6/1 60/7/1 59/8/1
f 78/5/1 79/6/1 64/7/1 63/8/1
f 80/1/1 81/2/1 66/3/1 65/4/1
f 82/5/1 83/6/1 79/7/1 78/8/1
f 84/1/1 85/2/1 81/3/1 80/4/1
f 86/5/1 87/6/1 82/7/1 88/8/1
f 89/1/1 90/2/1 85/3/1 84/4/1
f 91/5/1 92/6/1 87/7/1 86/8/1
f 93/1/1 94/2/1 90/3/1 89/4/1
f 95/5/1 96/6/1 91/7/1 97/8/1
f 96/5/1 98/6/1 92/7/1 91/8/1
f 99/1/1 100/2/1 94/3/1 93/4/1
f 101/5/1 102/6/1 103/7/1 104/8/1
f 105/1/1 106/2/1 100/3/1 99/4/1
f 107/5/1 108/6/1 102/7/1 101/8/1
f 109/1/1 110/2/1 106/3/1 105/4/1
f 111/5/1 112/6/1 108/7/1 107/8/1
f 113/5/1 114/6/1 115/7/1 112/8/1
f 116/5/1 117/6/1 118/7/1 114/8/1
f 117/5/1 119/6/1 120/7/1 118/8/1
f 121/5/1 122/6/1 123/7/1 124/8/1
f 122/5/1 125/6/1 126/7/1 123/8/1
f 127/5/1 128/6/1 129/7/1 130/8/1
f 128/5/1 131/6/1 132/7/1 129/8/1
f 131/5/1 133/6/1 134/7/1 132/8/1
f 133/5/1 135/6/1 136/7/1 134/8/1
f 135/5/1 137/6/1 138/7/1 136/8/1
f 137/5/1 139/6/1 140/7/1 138/8/1
f 139/5/1 141/6/1 142/7/1 140/8/1
f 141/5/1 143/6/1 144/7/1 142/8/1
f 143/5/1 145/6/1 146/7/1 144/8/1
f 145/5/1 147/6/1 148/7/1 146/8/1
f 147/5/1 149/6/1 150/7/1 148/8/1
f 149/5/1 151/6/1 152/7/1 150/8/1
f 151/5/1 153/6/1 154/7/1 152/8/1
f 153/5/1 155/6/1 156/7/1 154/8/1
f 155/5/1 157/6/1 158/7/1 156/8/1
f 157/5/1 159/6/1 160/7/1 158/8/1
f 159/5/1 161/6/1 162/7/1 160/8/1
f 161/5/1 163/6/1 164/7/1 162/8/1
f 163/5/1 165/6/1 166/7/1 164/8/1
f 167/5/1 168/6/1 169/7/1 119/8/1
f 170/5/1 171/6/1 122/7/1 121/8/1
f 172/5/1 173/6/1 174/7/1 175/8/1
f 173/5/1 176/6/1 177/7/1 174/8/1
f 176/5/1 178/6/1 179/7/1 177/8/1
f 178/5/1 180/6/1 181/7/1 179/8/1
f 182/5/1 183/6/1 184/7/1 185/8/1
f 183/5/1 186/6/1 187/7/1 184/8/1
f 186/5/1 188/6/1 189/7/1 187/8/1
f 188/5/1 190/6/1 191/7/1 189/8/1
f 190/5/1 192/6/1 193/7/1 191/8/1
f 192/5/1 194/6/1 195/7/1 193/8/1
f 194/5/1 196/6/1 197/7/1 195/8/1
f 196/5/1 198/6/1 127/7/1 197/8/1
f 199/5/1 200/6/1 201/7/1 168/8/1
f 200/5/1 202/6/1 203/7/1 201/8/1
f 202/5/1 204/6/1 205/7/1 203/8/1
f 204/5/1 206/6/1 170/7/1 205/8/1
f 207/5/1 208/6/1 172/7/1 209/8/1
f 208/1/1 210/2/1 173/3/1 172/4/1
f 211/5/1 212/6/1 213/7/1 180/8/1
f 212/5/1 214/6/1 215/7/1 213/8/1
f 214/5/1 216/6/1 217/7/1 215/8/1
f 216/5/1 218/6/1 219/7/1 217/8/1
f 218/5/1 220/6/1 221/7/1 219/8/1
f 220/5/1 222/6/1 223/7/1 221/8/1
f 222/5/1 224/6/1 225/7/1 223/8/1
f 224/5/1 226/6/1 227/7/1 225/8/1
f 226/5/1 228/6/1 229/7/1 227/8/1
f 228/5/1 230/6/1 182/7/1 229/8/1
f 231/1/1 232/2/1 208/3/1 207/4/1
f 233/1/1 234/2/1 231/3/1 235/4/1

g mesh_tile_0003
f 236/9/1 237/10/1 238/11/1 239/12/1

