# Wavefront OBJ file automatically generated by Tiled2Unity

# Vertices (Count = 8)
v -8.96 -3.52 0
v -9.28 -3.52 0
v -9.28 -3.2 0
v -8.96 -3.2 0
v 0 -0.32 0
v -0.32 -0.32 0
v -0.32 0 0
v 0 0 0

# Texture cooridinates (Count = 8)
vt 0.1000061 0.9500061
vt 0.1499939 0.9500061
vt 0.1499939 0.9999939
vt 0.1000061 0.9999939
vt 6.103516E-06 0.9000061
vt 0.04999389 0.9000061
vt 0.04999389 0.9499939
vt 6.103516E-06 0.9499939

# Normal
vn 0 0 -1

# Groups (Count = 2)

g mesh_0001
f 1/1/1 2/2/1 3/3/1 4/4/1

g mesh_tile_0021
f 5/5/1 6/6/1 7/7/1 8/8/1

